<svg width="223" height="61" viewBox="0 0 223 61" fill="none" xmlns="http://www.w3.org/2000/svg">
<g clip-path="url(#clip0_25_22180)">
<path d="M155.415 5.91287V53.038H146.577V5.91287H127V4H174.992V5.91287H155.415Z" fill="#E4EEFF"/>
<mask id="mask0_25_22180" style="mask-type:luminance" maskUnits="userSpaceOnUse" x="135" y="5" width="32" height="10">
<path d="M135.393 5.04956H166.506V14.5047H135.393V5.04956Z" fill="white"/>
</mask>
<g mask="url(#mask0_25_22180)">
<path d="M135.393 -0.122559H166.506V14.5046H135.393V-0.122559Z" fill="#E4EEFF"/>
</g>
<path d="M210.94 52.5558L199.364 30.194H180.634L169.429 52.5558H167L191.901 3.76732C192.505 2.58997 193.115 2 193.73 2C194.185 2 194.624 2.28069 195.053 2.84208C195.487 3.40346 195.906 4.0948 196.314 4.91088L221.68 52.5558H210.94ZM190.991 14.101C190.479 13.1861 190.074 12.7287 189.771 12.7287C189.515 12.7287 189.322 12.843 189.192 13.0718C189.068 13.3005 188.955 13.5448 188.851 13.7995L181.616 28.2707H198.371L190.991 14.101Z" fill="#E4EEFF"/>
<mask id="mask1_25_22180" style="mask-type:luminance" maskUnits="userSpaceOnUse" x="191" y="2" width="28" height="31">
<path d="M191.741 2.78418H218.864V32.7247H191.741V2.78418Z" fill="white"/>
</mask>
<g mask="url(#mask1_25_22180)">
<mask id="mask2_25_22180" style="mask-type:luminance" maskUnits="userSpaceOnUse" x="192" y="-5" width="31" height="38">
<path d="M192.317 3.57175L207.835 -4.26685L222.314 24.7146L206.796 32.5558L192.317 3.57175Z" fill="white"/>
</mask>
<g mask="url(#mask2_25_22180)">
<mask id="mask3_25_22180" style="mask-type:luminance" maskUnits="userSpaceOnUse" x="173" y="-5" width="64" height="77">
<path d="M173.417 13.1231L207.553 -4.12646L236.733 54.2861L202.594 71.5357L173.417 13.1231Z" fill="white"/>
</mask>
<g mask="url(#mask3_25_22180)">
<path d="M209.902 13.1128C204.656 12.4215 196.24 4.39573 194.18 2.96368L194.092 2.78955L191.756 3.9695L213.517 47.5314C210.328 47.009 206.369 48.4644 203.266 51.6742C198.922 56.1835 197.971 62.3665 201.15 65.4801C204.323 68.5859 210.421 67.4527 214.776 62.9409C218.884 58.6681 219.913 52.9295 217.318 49.6886L217.481 49.608L200.922 16.4603C202.571 18.0327 204.514 18.698 208 18.6201C214.034 18.4901 215.546 20.6603 217.538 25.7673C217.693 26.1702 218.329 26.0948 218.303 25.6348C217.902 19.9586 216.564 13.9809 209.902 13.1128Z" fill="#E4EEFF"/>
</g>
</g>
</g>
<mask id="mask4_25_22180" style="mask-type:luminance" maskUnits="userSpaceOnUse" x="2" y="6" width="23" height="56">
<path d="M2 6H24.2209V61.3068H2V6Z" fill="white"/>
</mask>
<g mask="url(#mask4_25_22180)">
<path d="M34.0044 13.532C29.6243 10.5458 25.6887 -0.427221 24.4871 -2.63637V-2.8313H21.872V45.9182C19.2568 44.0131 15.068 43.5245 10.8636 44.9929C4.96662 47.0618 1.35918 52.1558 2.80888 56.3714C4.25599 60.5792 10.2124 62.3231 16.1171 60.2569C21.6962 58.292 25.1771 53.6294 24.3062 49.562H24.4871V12.469C25.2572 14.6184 26.6965 16.0894 29.8466 17.5943C35.2965 20.2011 35.6764 22.8235 35.1776 28.2866C35.1389 28.718 35.7384 28.9363 35.9218 28.5127C38.0977 23.2601 39.568 17.3162 34.0044 13.532Z" fill="#E4EEFF"/>
</g>
<path d="M65.2313 50.1731C65.2313 51.0464 65.0762 51.6598 64.7662 52.0132C64.4612 52.3719 64.0839 52.5538 63.6291 52.5538C62.9185 52.5538 62.1303 52.2835 61.2621 51.7429C60.399 51.2101 59.7426 50.6877 59.2878 50.1731L23.875 13.5584C23.6682 13.3583 23.4873 13.2569 23.3375 13.2569C23.0816 13.2569 22.955 13.4622 22.955 13.8703V51.5558H21.0531V3.45346C21.0531 2.58799 21.2547 1.96423 21.663 1.58218C22.0687 1.19493 22.5777 1 23.1928 1C24.3556 1 25.472 1.53799 26.5418 2.61138L62.027 39.143C62.3836 39.5042 62.6627 39.6836 62.8642 39.6836C63.0141 39.6836 63.1278 39.5952 63.2053 39.4133C63.2803 39.2339 63.319 39.0676 63.319 38.9143V2.52821H65.2313V50.1731Z" fill="#E4EEFF"/>
<mask id="mask5_25_22180" style="mask-type:luminance" maskUnits="userSpaceOnUse" x="70" y="5" width="61" height="48">
<path d="M70 5H130.197V52.5617H70V5Z" fill="white"/>
</mask>
<g mask="url(#mask5_25_22180)">
<mask id="mask6_25_22180" style="mask-type:luminance" maskUnits="userSpaceOnUse" x="70" y="5" width="61" height="48">
<path d="M100.1 5C83.4762 5 70 15.6455 70 28.7809C70 41.9136 83.4762 52.5617 100.1 52.5617C116.721 52.5617 130.197 41.9136 130.197 28.7809C130.197 15.6455 116.721 5 100.1 5Z" fill="white"/>
</mask>
<g mask="url(#mask6_25_22180)">
<path d="M70 5H130.197V52.5617H70V5Z" fill="#E4EEFF"/>
</g>
</g>
<mask id="mask7_25_22180" style="mask-type:luminance" maskUnits="userSpaceOnUse" x="81" y="8" width="38" height="41">
<path d="M81.2694 8.70117H118.977V48.6219H81.2694V8.70117Z" fill="white"/>
</mask>
<g mask="url(#mask7_25_22180)">
<mask id="mask8_25_22180" style="mask-type:luminance" maskUnits="userSpaceOnUse" x="74" y="1" width="53" height="55">
<path d="M74.021 21.439L96.1437 1.83472L126.179 36.1208L104.059 55.725L74.021 21.439Z" fill="white"/>
</mask>
<g mask="url(#mask8_25_22180)">
<mask id="mask9_25_22180" style="mask-type:luminance" maskUnits="userSpaceOnUse" x="81" y="9" width="38" height="40">
<path d="M85.0837 11.6356C78.9748 17.0493 80.7449 29.1139 89.04 38.5821C97.335 48.0502 109.01 51.3354 115.119 45.9216C121.228 40.5079 119.455 28.446 111.163 18.9778C102.868 9.50962 91.19 6.22448 85.0837 11.6356Z" fill="white"/>
</mask>
<g mask="url(#mask9_25_22180)">
<path d="M74.021 21.439L96.1437 1.83472L126.179 36.1208L104.059 55.725L74.021 21.439Z" fill="#283D54"/>
</g>
</g>
</g>
</g>
<defs>
<clipPath id="clip0_25_22180">
<rect width="223" height="61" fill="white"/>
</clipPath>
</defs>
</svg>
