<svg width="99" height="80" viewBox="0 0 99 80" fill="none" xmlns="http://www.w3.org/2000/svg">
<mask id="mask0_101_55" style="mask-type:luminance" maskUnits="userSpaceOnUse" x="56" y="0" width="43" height="46">
<path d="M71.6059 0L98.3811 14.5532L83.5848 45.5306L56.8096 30.9774L71.6059 0Z" fill="white"/>
</mask>
<g mask="url(#mask0_101_55)">
<mask id="mask1_101_55" style="mask-type:luminance" maskUnits="userSpaceOnUse" x="71" y="1" width="20" height="39">
<path d="M71.7856 1.12398L90.9781 1.34011L90.9489 39.0941L71.7552 38.8807L71.7856 1.12398Z" fill="white"/>
</mask>
<g mask="url(#mask1_101_55)">
<mask id="mask2_101_55" style="mask-type:luminance" maskUnits="userSpaceOnUse" x="48" y="0" width="43" height="78">
<path d="M48.4076 0.864811L90.6307 1.33407L90.5696 77.4265L48.3439 76.9559L48.4076 0.864811Z" fill="white"/>
</mask>
<g mask="url(#mask2_101_55)">
<path d="M84.4301 20.4306C79.5933 16.9007 74.626 2.96926 74.1311 0.989668L72.1515 0.989674L72.6464 57.903C69.7566 55.6515 63.4725 55.1112 58.8226 56.7669C52.3059 59.1015 48.3116 64.9885 49.9106 69.9153C51.5083 74.8314 58.0887 76.9312 64.6168 74.5994C70.7844 72.3833 74.6357 66.9978 73.6761 62.2525L73.8766 62.2565L73.9111 19.0758C74.7616 21.5873 76.3511 23.3184 79.8309 25.1081C85.8517 28.2113 86.2716 31.2677 85.7145 37.6207C85.6685 38.1207 86.3333 38.3838 86.5351 37.8939C88.9449 31.8062 90.5776 24.9033 84.4301 20.4306Z" fill="#16293C"/>
</g>
</g>
</g>
<path d="M74.6259 66.7388C74.6259 67.9064 74.4307 68.7266 74.0403 69.1992C73.6563 69.6787 73.1813 69.922 72.6086 69.922C71.7138 69.922 70.7215 69.5606 69.6282 68.8378C68.5415 68.1254 67.715 67.4269 67.1423 66.7388L22.5531 17.7815C22.2928 17.5139 22.065 17.3784 21.8763 17.3784C21.5542 17.3784 21.3948 17.6529 21.3948 18.1985V68.5875H19V4.27025C19 3.11304 19.2538 2.27901 19.7679 1.76817C20.2787 1.25038 20.9197 0.989746 21.6941 0.989746C23.1583 0.989746 24.5639 1.70909 25.9109 3.14431L70.5913 51.9904C71.0403 52.4735 71.3917 52.7133 71.6455 52.7133C71.8342 52.7133 71.9774 52.5951 72.075 52.3518C72.1694 52.1121 72.2182 51.8897 72.2182 51.6846L72.1515 1.97954L74.6259 3.03311V66.7388Z" fill="#16293C"/>
<mask id="mask3_101_55" style="mask-type:luminance" maskUnits="userSpaceOnUse" x="0" y="13" width="22" height="67">
<path d="M0 13H21.5905V79.8546H0V13Z" fill="white"/>
</mask>
<g mask="url(#mask3_101_55)">
<path d="M31.0965 22.1046C26.8407 18.4949 23.0167 5.23075 21.8492 2.56033V2.32471H19.3082V61.2529C16.7673 58.9501 12.6972 58.3594 8.61213 60.1345C2.88244 62.6353 -0.622666 68.7929 0.785903 73.8887C2.19196 78.9751 7.9794 81.0831 13.7166 78.5855C19.1375 76.2104 22.5196 70.5742 21.6734 65.6575H21.8492V20.8197C22.5974 23.4178 23.9959 25.196 27.0566 27.0151C32.3519 30.1661 32.721 33.3361 32.2364 39.9399C32.1988 40.4614 32.7813 40.7253 32.9595 40.2132C35.0737 33.8639 36.5023 26.6789 31.0965 22.1046Z" fill="#16293C"/>
</g>
</svg>
